<?xml version="1.0" standalone="no"?>
<!DOCTYPE svg PUBLIC "-//W3C//DTD SVG 20010904//EN"
 "http://www.w3.org/TR/2001/REC-SVG-20010904/DTD/svg10.dtd">
<svg version="1.0" xmlns="http://www.w3.org/2000/svg"
 width="643.000000pt" height="643.000000pt" viewBox="0 0 643.000000 643.000000"
 preserveAspectRatio="xMidYMid meet">
<metadata>
Created by potrace 1.11, written by Peter Selinger 2001-2013
</metadata>
<g transform="translate(0.000000,643.000000) scale(0.100000,-0.100000)"
fill="#000000" stroke="none">
<path d="M2 3218 l-2 -3218 3218 2 3217 3 -3212 2 -3213 3 -3 3213 -2 3212 -3
-3217z"/>
<path d="M20 3220 l0 -3200 3200 0 3200 0 0 3200 0 3200 -3200 0 -3200 0 0
-3200z m925 2786 c87 -40 136 -41 210 -4 93 47 88 49 124 -45 17 -46 41 -93
54 -104 12 -11 57 -33 100 -49 42 -16 77 -33 77 -39 0 -5 -16 -44 -34 -85 -39
-88 -39 -111 4 -212 17 -39 30 -73 30 -77 0 -4 -37 -20 -81 -36 -95 -35 -112
-53 -154 -162 -16 -40 -30 -73 -32 -73 -2 0 -37 15 -76 33 -99 45 -126 45
-220 3 -43 -20 -80 -36 -82 -36 -2 0 -18 37 -35 83 -18 45 -40 91 -51 102 -10
12 -55 34 -99 50 -45 16 -80 35 -80 42 0 8 12 37 26 65 44 87 46 131 7 217
-18 40 -33 79 -33 86 0 7 35 25 78 40 42 15 87 37 98 47 12 11 36 57 54 104
17 46 34 84 36 84 3 0 38 -15 79 -34z m4478 -628 c54 -82 128 -125 215 -127
l34 -1 -7 -72 c-7 -87 2 -121 51 -195 l36 -55 -22 -15 c-87 -61 -122 -115
-135 -206 l-8 -49 -71 7 c-68 6 -150 -10 -166 -33 -6 -10 -66 -52 -73 -52 -3
0 -22 22 -42 49 -46 64 -84 87 -168 101 l-68 12 7 42 c9 59 6 123 -6 146 -6
11 -8 20 -5 20 3 0 1 6 -5 13 -6 6 -24 29 -40 51 l-30 38 28 22 c91 70 110 99
127 191 l11 60 82 -4 c73 -3 88 0 136 23 30 15 59 33 66 41 18 21 35 19 53 -7z
m-3161 -402 c49 -21 72 -29 81 -28 4 1 7 -2 7 -7 0 -9 99 -8 136 2 12 3 40 15
62 26 23 12 45 21 50 21 4 0 16 -25 27 -55 10 -30 23 -55 28 -55 6 0 8 -3 4
-6 -3 -3 3 -15 13 -26 18 -20 19 -20 119 16 337 120 679 100 985 -57 284 -145
494 -389 599 -698 82 -237 78 -549 -9 -791 -110 -305 -329 -546 -627 -688
-686 -328 -1505 59 -1693 799 -61 238 -46 499 42 734 33 89 33 92 15 108 -10
10 -22 15 -25 12 -3 -4 -6 -2 -6 3 0 6 -17 16 -37 23 -21 8 -48 17 -60 22
l-22 8 24 55 c13 29 21 57 18 60 -4 3 -2 6 4 6 7 0 11 26 10 70 0 39 -5 70
-10 70 -6 0 -8 3 -4 6 3 3 -5 31 -19 61 -28 64 -27 63 -14 63 6 0 27 7 48 16
20 10 42 18 49 19 24 6 122 92 115 102 0 2 6 20 15 40 8 21 19 48 24 61 10 26
9 26 51 8z m-1052 -3326 c80 -16 170 -32 200 -36 63 -8 90 -19 90 -38 0 -7 55
-33 130 -60 72 -26 130 -52 130 -56 0 -5 -16 -43 -35 -85 -19 -41 -34 -79 -35
-83 0 -4 -5 -23 -10 -42 -8 -32 -7 -47 14 -130 2 -8 18 -46 35 -83 17 -38 31
-72 31 -76 0 -4 -24 -15 -52 -25 -29 -10 -63 -25 -75 -33 -13 -7 -23 -11 -23
-7 0 3 -11 -1 -25 -10 -14 -9 -25 -14 -25 -11 0 3 -15 -11 -32 -32 -18 -21
-37 -41 -43 -45 -5 -4 -7 -8 -2 -8 4 0 0 -11 -9 -24 -8 -14 -16 -29 -16 -33
-1 -9 -22 -64 -41 -105 l-12 -28 -52 25 c-29 13 -53 22 -53 19 0 -3 -15 4 -33
15 -19 11 -37 18 -40 14 -4 -3 -7 -2 -7 4 0 5 -28 10 -65 10 -37 0 -65 -5 -65
-10 0 -6 -3 -7 -6 -4 -4 3 -16 1 -28 -5 -11 -7 -25 -13 -31 -14 -5 -1 -36 -14
-67 -28 l-58 -26 -15 36 c-8 20 -15 38 -15 39 0 1 -8 20 -17 41 -9 22 -18 44
-19 51 -6 32 -114 141 -114 116 0 -4 -4 -2 -8 4 -4 7 -17 14 -27 16 -11 2 -29
8 -40 14 -11 6 -37 16 -57 22 -45 15 -46 25 -13 91 14 28 23 50 20 50 -3 0 1
10 10 23 8 13 12 27 8 30 -3 4 -2 7 4 7 19 0 13 130 -7 170 -10 19 -29 62 -43
96 l-25 61 104 38 c58 21 107 42 110 47 3 4 10 5 16 2 6 -4 8 -2 4 4 -3 6 5
19 19 30 21 16 39 52 68 133 5 15 16 14 104 -13 54 -16 163 -42 243 -58z
m4193 -510 c61 -55 84 -63 180 -66 48 -1 90 -3 92 -6 3 -2 6 -38 9 -79 6 -99
23 -137 90 -200 31 -29 56 -57 56 -64 0 -6 -15 -26 -33 -45 -85 -91 -92 -105
-97 -214 l-5 -100 -72 -2 c-106 -3 -139 -18 -210 -92 l-63 -64 -66 61 c-76 69
-106 81 -216 81 l-78 0 -1 63 c-1 123 -12 149 -96 230 l-58 56 51 53 c75 77
87 106 88 213 l1 90 90 6 c107 7 132 18 204 93 60 64 46 66 134 -14z"/>
<path d="M2111 4170 c-181 -470 -72 -970 285 -1310 217 -207 473 -314 780
-327 396 -17 772 165 1008 486 93 128 171 299 200 444 15 70 15 80 1 93 -11
12 -15 12 -15 2 0 -8 -3 -9 -8 -3 -7 10 -27 17 -49 18 -7 0 -13 3 -13 7 0 4
-7 7 -15 8 -8 1 -22 3 -30 4 -8 1 -15 6 -15 12 0 6 -5 4 -10 -4 -6 -10 -10
-11 -10 -2 0 6 -9 12 -20 12 -11 0 -20 4 -20 8 0 5 -7 9 -15 10 -8 1 -22 3
-30 4 -8 1 -15 6 -15 12 0 6 -5 4 -10 -4 -6 -10 -10 -11 -10 -2 0 6 -9 12 -19
12 -11 0 -22 6 -24 13 -4 9 -6 9 -6 -1 -1 -10 -5 -10 -17 2 -8 9 -20 14 -25
11 -5 -4 -9 0 -9 7 0 9 -3 9 -10 -2 -6 -10 -10 -11 -10 -2 0 6 -9 12 -20 12
-11 0 -20 6 -20 13 0 8 -4 7 -10 -3 -7 -11 -10 -11 -10 -2 0 7 -4 10 -10 7 -5
-3 -10 -2 -10 4 0 5 -9 8 -20 6 -11 -2 -20 0 -20 6 0 5 -9 9 -20 9 -11 0 -20
6 -20 13 0 8 -4 7 -10 -3 -7 -11 -10 -11 -10 -2 0 7 -5 10 -10 7 -5 -3 -10 -2
-10 4 0 5 -9 8 -20 6 -11 -2 -20 1 -20 6 0 6 -4 8 -9 4 -5 -3 -17 2 -25 11
-12 11 -16 12 -16 2 0 -10 -3 -9 -10 2 -7 11 -10 12 -10 2 0 -10 -4 -9 -16 2
-8 9 -20 14 -25 11 -5 -4 -9 -1 -9 5 0 6 -4 9 -9 5 -5 -3 -17 2 -25 11 -12 11
-16 12 -16 2 0 -10 -3 -9 -10 2 -7 11 -10 12 -10 2 0 -10 -4 -9 -16 2 -8 9
-20 14 -25 11 -5 -4 -9 -2 -9 3 0 5 -6 9 -12 9 -23 1 -43 8 -50 18 -5 6 -8 5
-8 -3 0 -10 -4 -9 -16 2 -8 9 -20 14 -25 11 -5 -4 -9 -2 -9 4 0 5 -9 8 -20 6
-11 -2 -20 1 -20 6 0 6 -4 7 -10 4 -5 -3 -10 0 -10 7 0 9 -3 9 -10 -2 -6 -10
-10 -11 -10 -2 0 6 -9 12 -20 12 -11 0 -20 4 -20 9 0 6 -9 8 -20 6 -11 -2 -20
1 -20 6 0 6 -4 7 -10 4 -5 -3 -10 0 -10 7 0 9 -3 9 -10 -2 -6 -10 -10 -11 -10
-2 0 6 -9 12 -20 12 -11 0 -20 6 -20 13 0 8 -4 7 -10 -3 -7 -11 -10 -11 -10
-2 0 7 -4 11 -9 7 -5 -3 -16 2 -24 10 -12 11 -17 12 -20 2 -4 -9 -6 -9 -6 1
-1 6 -10 12 -21 12 -11 0 -20 6 -20 13 0 8 -4 7 -10 -3 -5 -8 -10 -10 -10 -4
0 6 -7 11 -15 12 -8 1 -22 3 -30 4 -8 1 -15 4 -15 8 0 4 -7 7 -15 8 -8 1 -22
3 -30 4 -8 1 -15 4 -15 8 0 4 -7 7 -15 8 -8 1 -22 3 -30 4 -8 1 -15 4 -15 8 0
4 -7 7 -15 8 -8 1 -22 3 -30 4 -8 1 -15 6 -15 12 0 6 -5 4 -10 -4 -6 -10 -10
-11 -10 -2 0 6 -9 12 -20 12 -11 0 -20 4 -20 8 0 5 -7 9 -15 10 -8 1 -22 3
-30 4 -8 1 -15 5 -15 10 0 5 -7 2 -16 -6 -11 -12 -20 -13 -33 -6 -10 5 -21 6
-25 3 -3 -3 -6 0 -6 8 0 11 -2 11 -10 -1 -6 -10 -10 -11 -10 -2 0 6 -9 12 -20
12 -11 0 -20 4 -20 8 0 5 -7 9 -15 10 -8 1 -22 3 -30 4 -8 1 -15 6 -15 12 0 6
-5 4 -10 -4 -6 -10 -10 -11 -10 -2 0 6 -9 12 -20 12 -11 0 -20 6 -20 13 0 8
-4 7 -10 -3 -7 -11 -10 -11 -10 -2 0 7 -4 10 -10 7 -5 -3 -10 -1 -10 5 0 6 -4
8 -10 5 -5 -3 -10 0 -10 7 0 9 -3 9 -10 -2 -6 -10 -10 -11 -10 -2 0 6 -9 12
-20 12 -11 0 -20 6 -20 13 0 8 -4 7 -10 -3 -7 -11 -10 -11 -10 -2 0 7 -4 10
-10 7 -5 -3 -10 -2 -10 4 0 5 -9 8 -20 6 -11 -2 -20 -1 -20 3 0 4 -9 8 -20 9
-15 1 -25 -14 -49 -77z"/>
</g>
</svg>
